<svg width="321" height="322" viewBox="0 0 321 322" fill="none" xmlns="http://www.w3.org/2000/svg">
<path fill-rule="evenodd" clip-rule="evenodd" d="M15.7822 230.965L118.204 169.496L108.87 144.745L138.122 114.699L175.09 106.732L185.795 119.907L168.75 137.17L153.893 141.85L143.27 152.761L148.473 167.238L159.031 178.448L173.92 174.486L184.516 162.851L207.651 155.521L214.546 171.031L190.671 200.299L150.671 212.962L132.729 192.99L29.9645 254.66C25.0883 248.385 19.4121 239.498 15.7822 230.965ZM311.307 105.66L229.947 127.602C234.432 139.532 235.906 146.541 237.147 154.269L318.36 132.359C317.065 123.684 314.741 114.851 311.307 105.66Z" fill="#E4FAED"/>
<path fill-rule="evenodd" clip-rule="evenodd" d="M27.9074 172.043C33.6706 240.07 90.786 293.566 160.299 293.566C212.821 293.566 258.268 263.025 279.825 218.758L306.279 227.917C280.821 283.068 225 321.386 160.299 321.386C75.4282 321.386 5.82855 255.444 0 172.043H27.9074ZM0.424488 144.348C8.63126 63.3249 77.1316 0 160.304 0C248.995 0 321 72.0051 321 160.696C321 174.922 319.15 188.718 315.667 201.855L289.283 192.723C291.876 182.245 293.182 171.49 293.174 160.696C293.174 87.3629 233.637 27.8257 160.304 27.8257C92.5057 27.8257 36.5005 78.7099 28.4298 144.348H0.435372H0.424488Z" fill="#E4FAED"/>
<path fill-rule="evenodd" clip-rule="evenodd" d="M159.874 83.3573C117.158 83.3954 82.4865 118.095 82.4865 160.821C82.4865 203.575 117.202 238.285 159.956 238.285C162.122 238.285 164.271 238.197 166.394 238.018L174.132 265.098C169.433 265.731 164.697 266.047 159.956 266.045C101.877 266.045 54.7261 218.894 54.7261 160.821C54.7261 102.742 101.877 55.5969 159.956 55.5969C161.392 55.5969 162.829 55.6241 164.255 55.684L159.874 83.3573ZM191.547 60.4296C234.208 73.8553 265.18 113.752 265.18 160.821C265.18 204.396 238.638 241.817 200.853 257.789L193.142 230.823C219.308 218.388 237.419 191.7 237.419 160.821C237.419 127.629 216.5 99.2865 187.139 88.2662L191.547 60.4296Z" fill="#E4FAED"/>
</svg>
