<svg width="321" height="316" viewBox="0 0 321 316" fill="none" xmlns="http://www.w3.org/2000/svg">
<path d="M131.839 286.557H108.911V275.095H131.839V286.557ZM263.679 103.16H280.875V154.741H263.679V183.396H275.143V206.321H263.679V257.901H51.5889V206.321H28.6602V200.59H51.5889V22.9248H263.679V103.16Z" fill="#3DA2FF"/>
<path d="M51.5893 257.901H108.911V286.557H51.5893V257.901Z" fill="#0157A9"/>
<path d="M108.911 286.557H212.089V315.213H108.911V286.557Z" fill="#0157A9"/>
<path d="M212.089 257.901H263.679V286.557H212.089V257.901Z" fill="#0157A9"/>
<path d="M263.679 206.321H292.339V257.901H263.679L263.679 206.321Z" fill="#0157A9"/>
<path d="M108.911 0H212.089V22.9246H108.911V0Z" fill="#0157A9"/>
<path d="M0 103.161H28.6607V206.321H0V103.161Z" fill="#0157A9"/>
<path d="M28.6607 206.321H51.5893V257.901H28.6607V206.321Z" fill="#0157A9"/>
<path d="M108.911 234.976H91.7144V229.246H85.9819V223.514H68.7856V212.052H51.5894V200.59H28.6606V103.161H51.5894V45.8494H108.911V22.9246H160.5V34.3865H154.768V57.3113H137.572V40.1179H126.107V57.3113H120.375V63.0427H126.107V74.5046H80.2495V126.085H103.178V154.741H91.7144V177.666H85.9819V171.934H80.2495V166.203H63.0532V171.934H57.3218V189.128H68.7856V194.859H80.2495V212.052H91.7144V223.514H97.4468V229.246H108.911V217.783H160.5V234.976H194.893V257.901H212.089V286.557H131.839V275.094H108.911V234.976ZM292.339 206.321H275.143V183.396H263.678V154.741H280.875V103.161H292.339V206.321ZM143.303 97.4294H149.036V103.161H137.572V91.698H143.303V97.4294ZM263.678 97.4294H257.947V74.5046H240.75V63.0427H223.553V45.8494H263.678V97.4294ZM137.572 91.698H131.839V80.2361H137.572V91.698Z" fill="#6EC310"/>
<path d="M194.893 292.288H189.161V309.481H183.428V315.213H166.232V303.751H154.768V292.288H149.036V286.557H194.893V292.288ZM292.339 206.321V217.783H286.607V212.052H280.875V206.321H292.339ZM321 206.321H292.339V103.161H321V206.321ZM108.911 45.8494H51.5894V103.161H28.6606V45.8494H51.5894V22.9246H108.911V45.8494ZM292.339 103.161H263.678V45.8494H292.339V103.161ZM263.678 45.8494H212.089V22.9246H263.678V45.8494Z" fill="#2A5401"/>
<path d="M80.25 126.085V74.5048H131.839V126.085H80.25Z" fill="white"/>
</svg>
